<mxfile host="65bd71144e">
    <diagram id="wD-VeWINSP7eyTfWzriU" name="Page-1">
        <mxGraphModel dx="1625" dy="451" grid="1" gridSize="10" guides="1" tooltips="1" connect="1" arrows="1" fold="1" page="1" pageScale="1" pageWidth="827" pageHeight="1169" math="0" shadow="0">
            <root>
                <mxCell id="0"/>
                <mxCell id="1" parent="0"/>
                <mxCell id="2" value="" style="whiteSpace=wrap;html=1;" vertex="1" parent="1">
                    <mxGeometry x="420" y="110" width="520" height="380" as="geometry"/>
                </mxCell>
                <mxCell id="17" style="edgeStyle=none;html=1;exitX=1;exitY=0.75;exitDx=0;exitDy=0;entryX=0;entryY=0.75;entryDx=0;entryDy=0;" edge="1" parent="1" source="4" target="5">
                    <mxGeometry relative="1" as="geometry"/>
                </mxCell>
                <mxCell id="23" style="edgeStyle=none;html=1;exitX=1;exitY=1;exitDx=0;exitDy=0;entryX=0.067;entryY=1;entryDx=0;entryDy=0;entryPerimeter=0;" edge="1" parent="1" source="4" target="19">
                    <mxGeometry relative="1" as="geometry"/>
                </mxCell>
                <mxCell id="4" value="String&lt;br&gt;window&lt;br&gt;foo:0xa00" style="whiteSpace=wrap;html=1;" vertex="1" parent="1">
                    <mxGeometry x="440" y="140" width="120" height="60" as="geometry"/>
                </mxCell>
                <mxCell id="5" value="" style="whiteSpace=wrap;html=1;" vertex="1" parent="1">
                    <mxGeometry x="590" y="140" width="150" height="60" as="geometry"/>
                </mxCell>
                <mxCell id="6" value="GO (0x100)" style="text;html=1;align=center;verticalAlign=middle;resizable=0;points=[];autosize=1;strokeColor=none;" vertex="1" parent="1">
                    <mxGeometry x="440" y="120" width="80" height="20" as="geometry"/>
                </mxCell>
                <mxCell id="8" value="" style="whiteSpace=wrap;html=1;" vertex="1" parent="1">
                    <mxGeometry x="240" y="110" width="160" height="270" as="geometry"/>
                </mxCell>
                <mxCell id="9" value="ECStack&lt;br&gt;" style="text;html=1;align=center;verticalAlign=middle;resizable=0;points=[];autosize=1;strokeColor=none;" vertex="1" parent="1">
                    <mxGeometry x="240" y="90" width="60" height="20" as="geometry"/>
                </mxCell>
                <mxCell id="10" value="VO:GO" style="whiteSpace=wrap;html=1;" vertex="1" parent="1">
                    <mxGeometry x="250" y="310" width="140" height="60" as="geometry"/>
                </mxCell>
                <mxCell id="11" value="全局上下文" style="text;html=1;align=center;verticalAlign=middle;resizable=0;points=[];autosize=1;strokeColor=none;" vertex="1" parent="1">
                    <mxGeometry x="250" y="290" width="80" height="20" as="geometry"/>
                </mxCell>
                <mxCell id="12" value="foo 函数对象 0xa00" style="text;html=1;align=center;verticalAlign=middle;resizable=0;points=[];autosize=1;strokeColor=none;" vertex="1" parent="1">
                    <mxGeometry x="590" y="120" width="120" height="20" as="geometry"/>
                </mxCell>
                <mxCell id="15" style="edgeStyle=none;html=1;" edge="1" parent="1" source="13" target="4">
                    <mxGeometry relative="1" as="geometry"/>
                </mxCell>
                <mxCell id="13" value="parentScope:0x100" style="whiteSpace=wrap;html=1;" vertex="1" parent="1">
                    <mxGeometry x="600" y="150" width="120" height="20" as="geometry"/>
                </mxCell>
                <mxCell id="14" value="函数执行器" style="whiteSpace=wrap;html=1;" vertex="1" parent="1">
                    <mxGeometry x="600" y="170" width="120" height="20" as="geometry"/>
                </mxCell>
                <mxCell id="22" style="edgeStyle=none;html=1;exitX=0;exitY=0.25;exitDx=0;exitDy=0;" edge="1" parent="1" source="18" target="4">
                    <mxGeometry relative="1" as="geometry"/>
                </mxCell>
                <mxCell id="18" value="" style="whiteSpace=wrap;html=1;" vertex="1" parent="1">
                    <mxGeometry x="592" y="240" width="150" height="60" as="geometry"/>
                </mxCell>
                <mxCell id="19" value="test 函数对象 0xb00" style="text;html=1;align=center;verticalAlign=middle;resizable=0;points=[];autosize=1;strokeColor=none;" vertex="1" parent="1">
                    <mxGeometry x="592" y="220" width="120" height="20" as="geometry"/>
                </mxCell>
                <mxCell id="20" value="parentScope:0x100" style="whiteSpace=wrap;html=1;" vertex="1" parent="1">
                    <mxGeometry x="602" y="250" width="120" height="20" as="geometry"/>
                </mxCell>
                <mxCell id="21" value="函数执行器" style="whiteSpace=wrap;html=1;" vertex="1" parent="1">
                    <mxGeometry x="602" y="270" width="120" height="20" as="geometry"/>
                </mxCell>
                <mxCell id="24" value="" style="shape=image;verticalLabelPosition=bottom;labelBackgroundColor=#ffffff;verticalAlign=top;aspect=fixed;imageAspect=0;image=data:image/png,iVBORw0KGgoAAAANSUhEUgAAAVQAAAEMCAYAAACbT04vAAAgAElEQVR4Ae2dTWscSZrH57vUoYbFKhipB211syMJdiRrbWNXe3qMYcW0hBl5xt1zWAzrsUZthl4ferHNIsS4aRbBYmsN7YPHnmb7YBsP26Cz17c++NTM2R/hWZ7Iisx4zcyqisyKzPwfiqzKjIyMeOIfv3jipTJ+1OsPCB/YABqABqCB2TXwIxhxdiPChrAhNAANsAYAVHjo6KFAA9BAIA0AqIEMCQ8FHgo0AA0AqAAqvBNoABoIpAEANZAh4Z3AO4EGoAEAFUCFdwINQAOBNACgBjJkdN7J2nM6ufGc9tuaP+QLEIxQA/UBdXFEm6PLtHQq8m6BANFbOrkhP2/o/nuRp9klrAYAdfngHW0/UT4PXtKCKy9Vnbt6RI+P79C6Ef+Vw1d09+pkZc73PH72lPbOTnZfdA2xYQukb7LyrByo/eFl2hzt0ObpDVpajRyo731NL6L16u7Ro2tf01ZLBL+w/wNtHzyco5d1kfaOPeA8e4eOHKD1wmXS8C0pQ689Opy/yoGqGn2hCUDdujfHSp7XGrYPqOd28/Jb8TWPdyr1OpGXykA9vB6pbiq2Y4fhKbWiHgFUFoTwTGUXXz++OP+JqChb598kwwAKcNNzN5RhATlkILzJe/QoHTp4S4/W3OLe3zKfeY/uX5Pjn5/Q/Wv69bzhiCxNfI+Mw/1cPexbknlNBCLTnuRNS6NiA1VMZb4Lz1Tt5qfff6C1M0Y6d1/rQwJej/YhnUvj4SGE17RcUNEZmEe3LvohWABcLa8Aqt+OBeWg2bEFYQFUtRAZrHmw8Fzf31KAKuJjb/INvVBB6xlOYFDpIBtQAi8ThpN6qAxEM44MWOIZRl7d597Qi2tqGhPA+xqHshWEwZrnoQrwGmOqrnO9My/p0hMDxq5zajn3r9PdovFOhmRRGBkngAqgjrUAoMpKwUcPMFNIeK47garCdPwM9gg1EK09t2CaPktNl/geEKiefPCzzby4gF9oJyvtGchl/vKB+pDOGTD13bd8YMBUPpuh6vNoBSyP6IoM6zwydD1jrGZ49mbR5QdU6/4vf+PHUD0gMiHU67vhZwLV/C2h4T6643SHZYD5PdTc5xqQt/NWouExgeP4nQvU3dd0af+2u4JqoPSDt9e/TWsPPF3/gEBNZveL4Gw3KP5yQ9gm2wYeqlrZPcBMC9hz3YaOG34myMzf6XPUNKXf3XH67wFQZwdqyWVQ8FDdjV+q3e40EgCqWugeYKbQcl7nMUXXGKq9xMkCKE9gGeOY6bPUdInv4YCa12U3Gwfzt0if0w6TVZpcD7Xv9zzN+6bq8pceQy3peWIMFUAd11cAVQVXISjY61Phyb95Nl09x2Bxw88Caj+Z4DEnpeSqA228VYTVn8Px+Wfy/R4qQ5HHRvX4B9RzAH4+QB0Qg9Pq9nN33xxbdZ0T3X3P2Oq4vDHLP1kD6G/oEY9qm8qBmi7s58X92ieiRf5yqZOyxEkuTXJCJw2XAE7Mjt8YA0qLSwJQX/pkAlTeL5/phSQDP332WzoxF/qb19WwFvT1NIlna/HJxiJZsiXTnEB8vIxLC1+uYln/jkqXO9njnXZYO4wQs7m86sm73BUE4p6CZVFYh1quPFWY4DteMI2uiuqhd+o7/ikFAIZvNCr3UFFo4QsNNg1kU4+XOpF3qgwh4L/8gcqlwQ07gNrgwgNYUYGhgbg0AKACqBj2gAaggUAaAFADGRKeQlyeAsoD5TEPDQCoACq8E2gAGgikAQA1kCHn0RrimfDCoIG4NACgAqjwTqABaCCQBjoP1A9WT9OPTy1BUIEEBY8pLo8J5VFveQCoACoaEzQm0EAgDQCoACoqU6DKBG+wXm8wRnsDqAAqgAqgQgOBNACgAqioTIEqU4weE9JUr9dcD1AXR9qbpoaL9WYyT1SYlIqnLPLKqfDaxx/SF9/9nr78bpsuFAHys236UoTl8Pz5lHY/rtoO63SztmdVnRfE79Nj9UAVMB3RQiryFRqOdigWqAKobakcElgFQBXgLQiTajWkbd6n3W/rgnfIdCMuHzxd5ysHqnMfqVMbtHZ6g/qVCHcyAQCok9nLJaI4zo2B9e2HNMzTFQP1eH0uwxwXjkt60Hnpx7W5lF1ZjVcOVGdCWgxU7QXMN+T2y/rLmrMXSJvn37q3RFFeHJ286Fm5r/QWKgk4f7rwU/rThcv0nxf/mdbf+4A+O32B/uujLfHh72Z5/XZtM73O4eR9HO7U3/2E/v3cL8T1f/nHM+KavC7j5escTsar3iOfy8+Q16c/joHqg2U6JCC7+dnxi8P3jedLb1KG8Q0JlA2X2F4AtQj4AKZRFs1q8OcC1IXVtnf5GXjPad+oHAK2BQAUYTxvwudrL7ae0wvl7ft8ztpVwHiuC1L/un6O7o8uk4SZBN1Hw7VcQUsgq+E4DglShjR/l3DmY9EzOIwML9L62/+mX/7P/+Z+1n5rVzQGlg1HI1yhh5oMHdz8TL1vlnNZPMPDT+lLH/BLlJmrHHEus28MtqgdqLwlytpwObfS1mmYqrr89n72rs38XGLgcDaM2SYCtg5QT2MvFXTyfoYhg1b+9h0ZphKSHIa/S8AycNkr5SNfU8Oq3824d1Z+Ljxm83zw3wVAZejpMJVltE43Fe+ybLjg6Qd4C/U5T5vXClSxv9TqSlQGqQqoYsM71dPkvabU3+OKYe8nxfs1+YEq93aaVTQMTgaoGo8LqNLjlN1zeZwGqHyPvN91lFBW0xT8ey5QuQvvn7C6cCy7/mXDSRjjGLwcI21YagMqd/M3I4MpF3JlQDV2KbU91mTnUXsb6XwPtU6gMkx5WMAEr+lplvVQOZwKYm8lm7LL741PrXwAqtaIlrKZaj98z7VfLUBlmMbUzVdFVB1Qx110HjMVk0qm1+nearonQGyGTTwcMYZ6/pPcAlXzlve9jIeqglKNa1qgMpj/7Z8+1Cap1Hhr+Z4L1AGV7cqXDVdLngC5IHUiRFlVDNRlWjrtgukKDTuxbCqZnLp//o1j9t4xpprO5scBVAanNlnUH6SrAlRPUwVv3hgqC5bDmnGWnRALIfheAVB7fZ6Asrv9POGlj62WDYfufpBya0ijUTFQk0X8m6Md7Z9S4ncngDru1iuz8rq4lOVPN+TYKYOWv7+h++9lnumJuM7n1Y8bvPoz9AotZ+nlGKYEIx/lOXWpk3qer/NvBi1//+PmhXTZFP9mUMr45ay/DKtC1IyT7+Vweeme+Zr17yi5JMoE5YAEdLV/UnlWDzCcy4RrCAxmtjHySRUDVa/MMRZYlV3+GPOLNMWvSZRRc8sIQMXLUar1DOG1wL4d0gCACqCiwneowsP7rdb7BVABVAAVQIUGAmkAQAVQUZkCVSZ4f9V6f02wL4AKoAKoACo0EEgDACqAisoUqDI1wYNCGqv1ogFUABVABVChgUAaAFABVFSmQJUJ3l+13l8T7AugAqgAKoAKDQTSAIAKoKIyBapMTfCgkMZqvWgAFUAFUAFUaCCQBgBUABWVKVBlgvdXrffXBPvWA1TelE9541RM70bFy1HaUglW6c9f/ZpOfpO3vc4yHd35Nf3fV+PP3ioaEzQmQTVQOVDFtiejES2kBZe8I3W4GEdFBlDjKIepvY+fbdKJAOQWHf3mF7lA/Xzv1/Tnj7L8bv9mKzf81GlKtZ49C3F1wxaVA9UppBZvI+3MLypYUC/Aa+OPcoDK4LU8UvZYf0Gfo3zqKZ8O2BlADTyGmuxMmr0EOtkDyvUiaW6xzfNvHW/2H4y3UEnitOIr2JbaBx9+4TO/2Fl+/nThcrpTqXmPGpZfPv0PP/l74vDyJdIcXr51X8bHR36RtBlXpb8B1Hrt3QFATqrXOQC1C13+ZOuTfUNwArYFABRhHLujcsGKPaW2ntML423+j9Zm7075NuRjmKpg5Dfr88Z96t5QEqbmW/f5Xv5MKsretJv05QG1P6DP97bo6GeKrX62SX/OHXNVwhplOXGecP/kOmigzeoDqjIx1YVJKXuXU8ceUk7B5O966ttiOkQFl9ubyLgYsryZn/wtjwxOdZsU/q1CV4bj487Kz61dU9XrQb8XALXXTyau0kmpr9DdD2p/p5671SjVB9TU2L6N++Zj+Mompdae04nqaZq/x/Zg8Or7RPFv915RwkMNtOspQ1DtnsvvqpdpAlZWPt43ij1P9kz5HIeT97uOapwyjkqOuUDl8VLbQ7XHVeejw0rskdY55Kku+84BqFy4DFV15n9+BV4ZUMV20NlGe7bHOt7AzxoCyPdQkzHU2ezFgHONmZoANX9LUbqAymHl9ZmPVXT5MSkVrnwAaq8t5wjUy7R0ajYwzFxx+wOqDqjJmOcJA1NsD216nffokerBpiKtHqjcjefuvGk/E6Blu/wcTh1TNeOt7Xeeh+oZL/18D93+2son1fj8631Vea4YqO7u/cLqDm2urlgVuqpM5sVbJVCTWfzndP/8G8fsvWNMVYC3+i4/g1P1KOWkEnfXze45d+3VcwzP/7jwSwugHJ85ASXjVe/PK4uZr+UBte9YIuX0Wttb2We2bweAOKuNKgZqIk4BUOWfUrHAlI1XLVDH3XplVl4vMHPZFHuxDFqGajZcIGb+b5Qfa9Wf4QYEw08d72ToMRT5nA+2fI2HCn6+9IE2hiqfJ+8345XXKzmmC/uVf0CN/wll/WvKCgvvtJIy6TB4awFqzIVWNVBjzvu0aTPHUKeNB/e5GzvYpbl2AVADL+zvQmVgT1T1YruQZ+SxuZCrs+wAVAC1cCzb7MqbY6V1ChbPAthi1gCACqAWAjVmASNtAGxMGgBQAVQAtcOTKDHBqA1pAVABVAAVQIUGAmkAQAVQUZkCVaY2eFjIw2xDKAAqgAqgAqjQQCANdB6oaJFna5FhP9gPGsg0AKAGapkgqkxUsAVs0VUNAKgAKrp70AA0EEgDAGogQ3a1RUa+4Y1CA5kGAFQAFd4JNAANBNJAvUAdb4MS0xYoWet6ne4+e0WPD69DXIHEldk2a8FxDrZoswZqBSq/xm/t9GWKE6iJ0K8cPqW9sxB9m0WPvEHfVWmgPqAK73REC4ujyIH6iu5eheCqEhzihbbarIGagKpsHQ2gYkgBQwrQQEs1UA9QF0e0eXqD+mxEABWVqaWVqc2eF/JWrmdRA1BXaDhSNuSLHKjrt56iyw/godGDBqbSQOVA7Q8v6xvyRQ7UXv8i7R1jth8eSTmPBHaCnVQNVA5Ua4M+uVlfJLueqsbg7/BQUUFMTeA3NFFWA5UD1UpI5B7qlUPM8ltlhu7fVN0/2LF7IAZQDVgAqN2rBAAfyjyUBuoD6vhfUpuRd/kBVFSuUJUL8XRPS/UB1fAE4xQbT0jhn1Jxlk33KifKoXllDqCmoMd/+VGBm1eBUWZxlRmAmgI1roJBRUF5QAPN0wCACqBiBhsagAYCaQBADWRIeBPN8yZQZiiz0BoAUAFUeCfQADQQSAMAaiBDhm7pEB+8J2igeRoAUAFUeCfQADQQSAMAaiBDwptonjeBMkOZhdYAgAqgwjuBBqCBQBoAUAMZMnRLh/jgPUEDzdMAgAqgwjuBBqCBQBoAUAMZEt5E87wJlBnKLLQGagAqb4GyQ+lbpsbfY95KOrSRER8qLjTQDQ3UA1S5QR+8QXStoAFooMUaAFBbXLjwirrhFaGc4ylnABVAhccEDUADgTRQD1DNMVQMAUDAgQQM7ywe7wxlMaAagOoo8MURbQKqgCqgCg20TAPzAWp/QAurl2nplAO2LTMwWm2UMTTQHQ0AqAA4vCRoABoIpIE5AXWZlk6PaCFQJuABdMcDQFmjrGPWQMVAZXDukLmIf2F1hzZXV9AqokGBBqCBVmmgYqAmrakAqDLTbwI25hYHaYNHBA1AA2U1UAtQyyYG4SBcaAAaaLIGAFR0uVrV5WpyZUTam9+YAKgAKoAKDUADgTQAoAYyJLyL5nsXKEOU4awaAFABVHgn0AA0EEgDAGogQ87asuF+eEfQQPM1AKACqPBOoAFoIJAGANRAhoR30XzvAmWIMpxVAwAqgArvBBqABgJpAEANZMhZWzbcD+8IGmi+BgBUABXeCTQADQTSAIAayJDwLprvXaAMUYazagBAbStQ157TyY3ntN/W/CFf8Coj1EC9QD21QWvKW6eGixG2iAJEb+nkhvy8ofvvRZjOIjEBqOGAc/WIHh/foXXD5uu3ntLRrYsTPefK4St6/Owp7Z1toKaM/M/qzbXx/tqAmrzCL/KXSr/3Nb2I1qu7R4+ufU1bLRD1wv4PdG53DkA585IuHTycCIC9/kXaO35Fd6+60nud7j47oitly+TsHTpygLmNYOlqnuoB6uLIesl0lAZnoG7dm7DCuSpaFecA1Jk1Mw1QPd6pTMtEXioD9fB6pPqqQrPdi7MGoC7T0uoG9cu24vMIJzxT2cXXjy/OfyIqwNb5N8kwgALc9NwNZVhADhkIb/IePUqHDt7SozW3wPa3zGfeo/vX5PjnJ3T/mn49bzgiSxPfI+NwP1cP+5ZkXhNYyLQnedPSqNhAgqXUcfc1bT955/5YnuNtWnugh720f9sDo4d0To334CHpXrBxXQ375DUt52iOu+i53XqGZFkvFUD1lJ9bn6U0lVN287i/eqDyuClvd6KNn0ba9S/yUD3X97cUoIoCZm/yDb1QQSugbQOOQaWDbEAJvMywk3qoDEQzjky44hkGGN3n3tCLa2oaE8D7GocyItZhl6UpuzeBqTkssHzwjrYt8DIsf6C1M1k8HD+D27y/N7GHyl36ovFODuMbEsjSJPIGoAKomcgNcZRtGQRQRzQcKdtGC7hGCFUPMFMbeK47garCdGwr9gg1EK09t2CaPsuyb0CgevLBzzbz4gJ+L+d+f/oz/RQCdfc1+bzRhf3XGjx7fQZqvpeZpmlSoJbyPpMx1lwvVpYlDx+gy99qqFbvoS6OaHO0Q9aM/qkNWoptlr8IFJ7rJoR6fTf8TKCav9OKLyugdnTH6b/H76HmPteAvJ23AVUNVOlh+oYHnJ5nmW78HIGazO5PMIGllX3WGPnLG2FisE31QPV5ozFOVHmAmRaU57oNHTf8TJCZv9PnOCuTO07/Pc0Gqs9D9edXAQqD0xgGEPdVCFT3KgAlTVym8FBb7Z2yxqoHaj/ZStryUBdHttfqBIkhyirDeICZVmLndR5TdI2h2kucLIDyBJYxjpk+y8pnOKDmeZhm42D+Fulz2qF8ORV2+Rl8D17SgmWDyZ5hQXlSoPbLjqEWjbOO040xVADVX8HLizuZkFLGTH1e6wwVKEg6C0HBXp8KT/7Ns+nqObaLG34WUPvJBI85KSWAd8NcFWCDm+Pzz+T7PVS2FY+NauO5bHsH4KsAao9n+7XJpWQWXgWg6PZrYdiu9mSVP5w+UZXowx5vFRNdOfDGLP8E9Xze9TeC59fgoY4LZDyWyuOpm+oEVQRGECBRljdly5I80EnDJiAVs+MSgHLZlAbaBJwyXhOg8n553QtJBn767Ld0Yi70N6+rYS3o62kSz9bik41FsmRLpjmB+HgZlxZ+soonQKaMe1rjov2BWPpkjqOa4XzjrWa4tME1l25Z0DbygXWorfcqU20EYFF9QA2Q2JAZR1wGOFA+HnDgn1KoK+XrCoAKkHhAUl5Era9wHi91on9JjXWG//K3W1cAKoAKoEID0EAgDQCogQzZei8NdgJ0oIFCDQCoEEmhSNBYtLubivINV74AKoAKoEID0EAgDQCogQyJVj5cKw9bwpZN1QCACqDCO4EGoIFAGug8UD9YPU0/PrUEQQUSVFM9C6QbXnEIDQCoACoaEzQm0EAgDQCoACoqU6DKFMLDQRzN9pQBVAAVQAVQoYFAGgBQAVRUpkCVCd5ls73LEOVXMVCTd6Emb5jit0wpH95nKgIhY1IqvxLcPPgd/e2ve+PPDn1VW5klr/STb5tSX+1Xu25yt0JZp5vf/Z6+/O5T2v0435a1p3vCshoefkpfcl6O1z11c8Jtsyd8fuz2KZO+GoCqvAdVGljsMwWglimgeMJs0Mlf6wRqBid+Rd88gZr/TtT3affbIqCu081vP6Sh1H+NxwvHE4D+s+0CoA5omhfCxKPhTFNVpalioLoz0B9ejuZt/fBQ3WVkC66jQM31ThPbXThmoG7TBS8oGwLUjz+kL777PX1x+L7HQ+X8wku160ZWh+YAVB4GcHitXjFmic3LyLTXqgTqVw9kVzk5fn+wQX/5xvTyPqC/fKOG+x395VdKnv+wk3S3v7lIN/sMtSzsyR+UcIr99G46x7dBJ+J+Pbwebo++P/ggpyIVAdXMR1F8elryyq/YQ9WHB7Z9u6BqL5dO3ugvX3Tt84DZIyvaqVQA1emBSu+VgWt+XJ6jHD7Iwt78zG2ntHueDjfo0NavZ/FxOrzAHAPV90xZRvkeu5Jefu3hs1f0+Fl3NiesH6gRdfdZIFUBlWFqAioBrArUBJA6GD3nvvkdff9XBba/ukjfO7rgApIPNhQwjiFsAFWkRQs3INc5WYl6AuZq2pWK009gquejKD71/vzvuUB1bcjnOscw1bY6YQj/QJceuLZKkenJe7m0DDMgAS/vuCOH02GX2TSLQ4SxxmETIJsAtJ83BrED6hN1+TmdVhrUNCbfRSNzfIfWlUbcmScA1Tae01BFhsy5zt39teGyUuGrf2ZeHioB6h92LJi60sDwMyGUhDM9SoaiAtOxfV338zkT5NazGcYGTGWYrx7Yz0nT5AC4uJaT35sHO7rHnaMNmQbzmAfU5QMPELUN+Xgvqte0bD07geraGZ8Gy2zS57tXPV8MVIakzzO8cKwPJ3BYE7KmzeTvyYCqpjnnuwBld7xOacsyx5o9VO7uX6alUzmFZYm+2rBVANUFOrsw2KvzeXzs3algMwGb2MT3nMQTzoYGTMD67hNp9MKRoe5OL8eXrQTInivPuRuN8uXqB+pDOqd5nWqcCkQ1uKphBuQFstBhfUBNxmH1rnk2TGAPD5jhfYAFUPXytuth2Os1A3WFhqc3qF8zNPOM2Eagmvk1u/JVANWEtpmGWX53Bag+D7WM7QRgHcMOlQG1TJc/onpexoYhwtQL1MVRVN19NmAVQO3xRJKnS60Wmh9spkdq/k5aVf/9ZqtreJehu/wcnzFGq+Zz1u9+oOZ4mJpXqnirWiUv6vKXG0Mtzl9xl7/HS5YcQCyOW5Y1j3/qQwN8bxVALTNRx89O9s96RUe3LkYzxFfentKukx1rBerCalzdfTZuJUAdT9JYXpuYSNpTxk0N0I0rO3uUeje5LFDdY60uwNvPGJArXCZAd1rlddHttxoR92QV3yMr2+MSnk4eUHsMTqvbzwA1xlZ5UkrbMjoJkz8play7LJrllzbwH3lySe+2i4klA4DsZdpdd3OiyPw9rvAeIFvjrSVn8v15ScquEJJiudmrwhUSec9p4rUagRpfd58LrBqgJiI3xzL/5hqDHENWjjfyUQOxXDYllkvJcVV9iVIWnqFnj2H+zek96nGI55vhHGnL0inTkrXgAqrG8/WGIQtbBFS5nEn+U0o7amAcUE9bDvWOOOy53exZsmIymNV4OEz+GOqAeiXWocr4c49jkKXjoo4Zeb7fHBu1/4HFQHWMtXri6/XNpVs62HPTrHnz0p7l1qEKL7ZDy6WkHWsEqiyQuI5VAlUaGce4ylwtj0Kgjr3pQo/MCZ94863aYJLvDMpiW4QaKmme/QBUvBylM+NbFjicwwWOShzKS208dMt5p5adG59vhyY8eQJQAdTuAJUB+iQZEki6/q61qeUrT5fBgby7dQKgAqjdAarHqwAc3HCAXSa3C4AKoAKoAC00EEgDACqAisoUqDLBo5vco2ubzQBUABVABVChgUAaAFABVFSmQJWpbd4W8jO5x915oEI0k4sGNoPNoAG3BgBUeCfwUKEBaCCQBgDUQIZEi+1usWEX2KVLGgBQAVR4J9AANBBIAwBqIEN2qRVGXuF1QgNuDdQDVN5HarRDm+PPcNGdmPkWEv9PuXuvG5uvzWPUAdIETUyvgRqAukLDkbrLaXzboKgCunL4lPbOTm9QNS58hx2hgW5poHKg8qZ8lkca2c6nquj5PZ13r3ZLBGr+8R1lDw1MrwEA1RhDBVCnFxMqImzXdQ1UDtRe335Tf384imrnU1UEACqgoOoB36GHSTRQA1AH1FscpRNSYmJqdSXaZRr8RnJ0+VGJJqlECAu9SA1UD1QeLzW2jnaOqxpdb5nA+o/J9g2zb8wGkdVfdrA5bD5fDVQOVCc8I56Ugoc6X0ECCLB/kzVQA1Bd46UrNIy0248xVFToJldopH2++q0cqD2HN+r0WiPp8gOo8xUkgAD7N1kD1QO1PyAGqPyXVOyTUgAqKnSTKzTSPl/91gLU5hQyT0jhn1LNKa/5Vh7YCfY3NQCgpkMN+C+/KQ78BjCggck0AKCmQJ3McBAa7AUNQAOmBgBUADXaP1mYYsVvACx2DQCoACqACg1AA4E0AKAGMmTsLSfSB+8OGqheAwAqgArvBBqABgJpAEANZEi0/tW3/rAxbBy7BgBUABXeCTQADQTSAIAayJCxt5xIH7w7aKB6DQCoACq8E2gAGgikAQA1kCHR+lff+sPGsHHsGgBQAVR4J9AANBBIAzUBlbeS3knfOLU2XEYBBirA2FtspA9eZZc0UANQl2np9A6pEF1Y3bG3lgZg0MhAA9BAwzVQPVAdL5ju9ZdpaXWD+g03XpdaXuQVniY0UKyB6oG6ONK8U1koC6uXo91KWqYRx2IBwUawETSQaaB6oDo91AGh258VAgQJW0AD7dBA9UDl7r02hppNUA0X22FEVAaUIzQADbAGagAqGzqBqtxXikEa80Z9qByoHNAANDCNBmoCql04GEO1bTJNAeIe2BEaiEcD8wGqZ1wVwohHGCgLlAU0MLkG6gcqw3Q0ogUsmcKaQ2gAGmiZBqoHqgBo9rnBf3kAAAY1SURBVC+pTcAUlahllQie3OSeXFttVj1QUXkAUGgAGuiIBgDUjhR0Wz0C5AveYUwaAFABVHhP0AA0EEgDAGogQ8bUSiIt8NqggfloAEAFUOGdQAPQQCANAKiBDAmPYD4eAewOu8ekAQAVQIV3Ag1AA4E0AKAGMmRMrSTSAq8NGpiPBgBUABXeCTQADQTSAIAayJDwCObjEcDusHtMGgBQAVR4J9AANBBIAwBqIEPG1EoiLfDaoIH5aABABVDhnUAD0EAgDcwO1MURbY6KNtyz39gfbQu6+5q2n7xTPj/Q2pkaW7uzd+jo2RFdMQp4/dZTOrp1EcI37BKtjpDOTmp1aqDyFiZiS5PTG7RUsIOpviEfw7UIwDUCTBX+mZd06clrWlbP1fz9yuErDziv010HaAGUOWmlZl2gnJtRzlMDVS3g3O1MTm3QcLhstFYrNFxdMc5FYDAG6sHD+aXL451KW8NLjUAjAOn86kcDbF85UN2b8bGXGtFb+4Vnqnbzs++X9m8bAnpI57QhAZ9He5vWHmTxbD8pHjpgYD4+vG48T4FIAXAleHFUbNaASojyak95AahqhSvyUAV4DTC6zvUT6J7bVYXiOqdev0h7x6/o7lX1nPmdu/1FYcx78BvAggbq0gCAOgFQlw8MmMp7DRAv7P9AOkyloB/SuQcvPftpMSyf0t5ZGdZ1TKCLySmXbXCuLmjgOX6tAagSinw0wKgLJw+G3L2XXX/1u214L5T7AKpub9t2uA6bxK4BALWBQM0fFkCli73SIX3t1WjlQO25Zvl5J9QGzvJ7vUvDs52uy192DLVoWKC9YgWIULaxa6B6oPYHZC6rMn9HYyQDjFa6+Lo1BspdfHNslSeg5BBAVgmWD955xlaTMJjlz2xl2V7tSeC7fyUIbDNX20wN1HRh/2gnWeCfHl2L9ldomF7foTVrXeqcK5L176hsuZM1ueQIa4VhUTN8teVV78hegmXku2BZFNahGvYCPOYKDzR6th6nBiqMaRszhE3wT6lq7BqibBAHyqZIAwBqbF6Ox0uFd4rKXFSZcX3+GgFQYwMq0oNuLDTQWA0AqBBvY8ULj2z+HhnKQC8DABVABVChAWggkAYA1ECGREutt9SwB+zRRQ0AqAAqvBNoABoIpAEANZAhu9gaI8/wQqEBXQMAKoAK7wQagAYCaQBADWRItNR6Sw17wB5d1ACACqDCO4EGoIFAGgBQAxmyi60x8gwvFBrQNQCgAqjwTqABaCCQBmYH6uKINkeuN0zp5O6VDRcoY61vOT3/+e/x+eM7tA47AhLQQO0amBqo6ev7Tm/Q0qofqGXDzR2ARe9CrUyceVurGI2Skgb/W6kGxNfwVn+/7eauNaUckZZ2ldPUQFWFUPaF0WXDqXHX9r1JQPV5p7Kiwkut3TOpTaeyjHGMsowB1PGWz9vGy6CT3/Zb93l7Ey2s9QZ/2eLym/yzF1Vvc7jd18pLpo3r2vPNHQBknMmx8M3+/TLbqehxAgiwBzQwuwYAVNnSl/BQBUwPHuoto3iDvwneBJbam/zHb/q339o/aZe/HCy52//48LqeVplXHGEXaKASDQCoUliFQM0B35mXdG7/tlJArn2mfK1fTrwybdqxzHbTAxJeLCanlDLx2R/n4ZmG0wCAKmFVBFS+rnXLle48nzc9V2sowdeNB1BRocNVaNhyvrYEUCcBqne8tEwh8k6orl1PKwQquvzwUKW+caxFCwCqFFqRh9qfpBvvASyPo7o82YlAXX4M9ejWxVpEBK/IU95SWzh2RocAaip29iD1yaXlg3ckZudlGNHt18MwTKzJKganA5IcnzZRJeK1QZ2sJLCfI8GFWX4ATGoBx7i0MDVQ0wX7ox3a1D76Iv+y4aIQxngmPl0WZXmTA+q5xlLNcGY847FXe4Z/LAYzTgeMNftgHWpnPB6t3GXDjmO05T81UFHQ820Z8U+p+dof+of9XRoAUJva2vu8VPxLKlrvxVUBca5dYAZQmwpUpBvghAai0wCAClFGJ0p4be3y2rpUngAqgAqgQgPQQCANAKiBDNmlVhh5hQcJDbg1AKACqPBOoAFoIJAGANRAhkSL7W6xYRfYpUsaAFABVHgn0AA0EEgD/w90Yiz3xIBNtgAAAABJRU5ErkJggg==;" vertex="1" parent="1">
                    <mxGeometry x="-120" y="120" width="340" height="268" as="geometry"/>
                </mxCell>
                <mxCell id="31" style="edgeStyle=none;html=1;exitX=1;exitY=0.75;exitDx=0;exitDy=0;entryX=0;entryY=0;entryDx=0;entryDy=0;" edge="1" parent="1" source="25" target="27">
                    <mxGeometry relative="1" as="geometry"/>
                </mxCell>
                <mxCell id="25" value="VO:AO(0x200)" style="whiteSpace=wrap;html=1;" vertex="1" parent="1">
                    <mxGeometry x="250" y="220" width="140" height="60" as="geometry"/>
                </mxCell>
                <mxCell id="26" value="FEC foo" style="text;html=1;align=center;verticalAlign=middle;resizable=0;points=[];autosize=1;strokeColor=none;" vertex="1" parent="1">
                    <mxGeometry x="240" y="200" width="60" height="20" as="geometry"/>
                </mxCell>
                <mxCell id="27" value="" style="whiteSpace=wrap;html=1;" vertex="1" parent="1">
                    <mxGeometry x="430" y="305" width="170" height="70" as="geometry"/>
                </mxCell>
                <mxCell id="28" value="foo函数对象(0xa00)" style="text;html=1;align=center;verticalAlign=middle;resizable=0;points=[];autosize=1;strokeColor=none;" vertex="1" parent="1">
                    <mxGeometry x="430" y="280" width="120" height="20" as="geometry"/>
                </mxCell>
                <mxCell id="32" style="edgeStyle=none;html=1;exitX=0.75;exitY=0;exitDx=0;exitDy=0;entryX=0.629;entryY=1.033;entryDx=0;entryDy=0;entryPerimeter=0;" edge="1" parent="1" source="29" target="4">
                    <mxGeometry relative="1" as="geometry"/>
                </mxCell>
                <mxCell id="29" value="parentScope:GO(0x100)" style="whiteSpace=wrap;html=1;" vertex="1" parent="1">
                    <mxGeometry x="440" y="310" width="150" height="30" as="geometry"/>
                </mxCell>
                <mxCell id="30" value="函数的执行体" style="whiteSpace=wrap;html=1;" vertex="1" parent="1">
                    <mxGeometry x="440" y="340" width="150" height="30" as="geometry"/>
                </mxCell>
            </root>
        </mxGraphModel>
    </diagram>
</mxfile>